<svg width="222" height="223" viewBox="0 0 222 223" fill="none" xmlns="http://www.w3.org/2000/svg">
<g clip-path="url(#clip0_39_37)">
<path d="M21.3488 187.858L19.3936 180.135C15.927 178.664 12.3803 177.389 8.77035 176.318L8.52356 179.907L7.52272 175.953C3.04574 174.671 0 174.107 0 174.107C0 174.107 4.11305 189.775 12.7427 201.753L22.7971 203.522L14.9861 204.65C16.0716 205.958 17.2382 207.197 18.4789 208.358C31.0312 220.027 45.0123 225.381 49.7063 220.316C54.4002 215.251 48.0298 201.686 35.4775 190.018C31.5862 186.401 26.6979 183.498 21.8046 181.213L21.3488 187.858Z" fill="#F2F2F2"/>
<path d="M39.9428 179.47L42.2551 171.847C40.0471 168.792 37.6689 165.865 35.1317 163.079L33.0681 166.024L34.2519 162.121C31.0804 158.707 28.7643 156.648 28.7643 156.648C28.7643 156.648 24.1997 172.19 25.4038 186.911L33.0979 193.63L25.8279 190.552C26.0823 192.234 26.442 193.898 26.905 195.535C31.6279 212.022 40.8331 223.843 47.4652 221.937C54.0974 220.032 55.6455 205.122 50.9226 188.634C49.4586 183.523 46.772 178.508 43.7626 174.018L39.9428 179.47Z" fill="#F2F2F2"/>
<path d="M154.91 52.8288H153.691V19.3674C153.691 16.824 153.191 14.3055 152.219 11.9558C151.247 9.60604 149.823 7.47099 148.027 5.67257C146.231 3.87414 144.099 2.44755 141.753 1.47425C139.407 0.50095 136.892 0 134.353 0H63.5643C58.4355 0 53.5167 2.04048 49.8901 5.67257C46.2635 9.30465 44.2261 14.2308 44.2261 19.3674V202.943C44.2261 205.486 44.7263 208.005 45.6981 210.354C46.6699 212.704 48.0944 214.839 49.8901 216.638C51.6858 218.436 53.8176 219.863 56.1639 220.836C58.5101 221.809 61.0247 222.31 63.5643 222.31H134.353C139.481 222.31 144.4 220.27 148.027 216.637C151.653 213.005 153.691 208.079 153.691 202.943V76.6474H154.91L154.91 52.8288Z" fill="#E6E6E6"/>
<path d="M135.133 5.03687H125.893C126.318 6.08029 126.481 7.21237 126.366 8.33336C126.251 9.45435 125.863 10.5299 125.235 11.4651C124.607 12.4004 123.759 13.1667 122.766 13.6965C121.773 14.2263 120.665 14.5034 119.54 14.5034H78.9864C77.8613 14.5033 76.7535 14.2262 75.7605 13.6963C74.7675 13.1664 73.9199 12.4001 73.2923 11.4649C72.6647 10.5296 72.2764 9.45416 72.1615 8.33321C72.0467 7.21227 72.2089 6.08024 72.6339 5.03687H64.0036C60.1734 5.03687 56.5002 6.56068 53.7918 9.27308C51.0835 11.9855 49.562 15.6643 49.562 19.5002V202.809C49.562 206.645 51.0835 210.324 53.7918 213.036C56.5002 215.749 60.1734 217.272 64.0036 217.272H135.133C138.963 217.272 142.636 215.749 145.345 213.036C148.053 210.324 149.575 206.645 149.575 202.809V202.809V19.4999C149.574 15.6641 148.053 11.9853 145.345 9.27298C142.636 6.56064 138.963 5.03687 135.133 5.03687V5.03687Z" fill="white"/>
<path d="M90.5045 78.0578C90.5043 76.7765 90.8411 75.5177 91.4809 74.4082C92.1208 73.2986 93.0413 72.3775 94.1496 71.7374C93.0418 71.0966 91.7851 70.7592 90.5059 70.7591C89.2266 70.759 87.9698 71.0961 86.8619 71.7366C85.754 72.3771 84.8339 73.2985 84.1942 74.408C83.5545 75.5175 83.2178 76.7761 83.2178 78.0573C83.2178 79.3385 83.5545 80.5972 84.1942 81.7067C84.8339 82.8162 85.754 83.7376 86.8619 84.3781C87.9698 85.0186 89.2266 85.3557 90.5059 85.3556C91.7851 85.3554 93.0418 85.018 94.1496 84.3773C93.0413 83.7373 92.1209 82.8164 91.481 81.707C90.8411 80.5976 90.5043 79.339 90.5045 78.0578V78.0578Z" fill="#CCCCCC"/>
<path d="M99.6656 78.0578C99.6653 76.7765 100.002 75.5177 100.642 74.4081C101.282 73.2986 102.202 72.3774 103.311 71.7374C102.203 71.0966 100.946 70.7592 99.6669 70.7591C98.3877 70.759 97.1309 71.0961 96.023 71.7366C94.915 72.3771 93.995 73.2985 93.3553 74.408C92.7156 75.5175 92.3789 76.7761 92.3789 78.0573C92.3789 79.3385 92.7156 80.5972 93.3553 81.7067C93.995 82.8162 94.915 83.7376 96.023 84.3781C97.1309 85.0186 98.3877 85.3557 99.6669 85.3556C100.946 85.3554 102.203 85.018 103.311 84.3773C102.202 83.7373 101.282 82.8164 100.642 81.707C100.002 80.5976 99.6654 79.339 99.6656 78.0578V78.0578Z" fill="#CCCCCC"/>
<path d="M108.619 85.3557C112.643 85.3557 115.906 82.0882 115.906 78.0575C115.906 74.0268 112.643 70.7592 108.619 70.7592C104.594 70.7592 101.331 74.0268 101.331 78.0575C101.331 82.0882 104.594 85.3557 108.619 85.3557Z" fill="#A837CE"/>
<path d="M120.797 100.853H78.3257C77.9213 100.852 77.5337 100.691 77.2478 100.405C76.9619 100.119 76.801 99.7303 76.8006 99.3254V56.7896C76.801 56.3847 76.9619 55.9964 77.2478 55.7101C77.5337 55.4238 77.9213 55.2627 78.3257 55.2622H120.797C121.202 55.2627 121.589 55.4238 121.875 55.7101C122.161 55.9964 122.322 56.3847 122.323 56.7896V99.3254C122.322 99.7303 122.161 100.119 121.875 100.405C121.589 100.691 121.202 100.852 120.797 100.853V100.853ZM78.3257 55.8735C78.0831 55.8738 77.8505 55.9704 77.6789 56.1422C77.5074 56.314 77.4109 56.5469 77.4107 56.7899V99.3257C77.4109 99.5687 77.5074 99.8016 77.6789 99.9734C77.8505 100.145 78.0831 100.242 78.3257 100.242H120.797C121.04 100.242 121.273 100.145 121.444 99.9734C121.616 99.8016 121.712 99.5687 121.712 99.3257V56.7899C121.712 56.5469 121.616 56.314 121.444 56.1422C121.273 55.9704 121.04 55.8738 120.797 55.8735H78.3257Z" fill="#CCCCCC"/>
<path d="M130.281 133.458H65.1419V134.069H130.281V133.458Z" fill="#CCCCCC"/>
<path d="M67.199 129.644C68.3351 129.644 69.2561 128.721 69.2561 127.583C69.2561 126.446 68.3351 125.523 67.199 125.523C66.0629 125.523 65.1419 126.446 65.1419 127.583C65.1419 128.721 66.0629 129.644 67.199 129.644Z" fill="#A837CE"/>
<path d="M130.281 154.06H65.1419V154.671H130.281V154.06Z" fill="#CCCCCC"/>
<path d="M67.199 150.245C68.3351 150.245 69.2561 149.323 69.2561 148.185C69.2561 147.047 68.3351 146.125 67.199 146.125C66.0629 146.125 65.1419 147.047 65.1419 148.185C65.1419 149.323 66.0629 150.245 67.199 150.245Z" fill="#A837CE"/>
<path d="M129.089 177.519H108.503C108.147 177.519 107.806 177.377 107.555 177.125C107.304 176.873 107.162 176.532 107.162 176.176V168.95C107.162 168.594 107.304 168.252 107.555 168C107.806 167.749 108.147 167.607 108.503 167.607H129.089C129.444 167.607 129.785 167.749 130.037 168C130.288 168.252 130.429 168.594 130.43 168.95V176.176C130.429 176.532 130.288 176.873 130.037 177.125C129.785 177.377 129.444 177.519 129.089 177.519V177.519Z" fill="#A837CE"/>
<path d="M73.9092 129.644C75.0453 129.644 75.9663 128.721 75.9663 127.583C75.9663 126.446 75.0453 125.523 73.9092 125.523C72.7731 125.523 71.8521 126.446 71.8521 127.583C71.8521 128.721 72.7731 129.644 73.9092 129.644Z" fill="#A837CE"/>
<path d="M80.6194 129.644C81.7556 129.644 82.6766 128.721 82.6766 127.583C82.6766 126.446 81.7556 125.523 80.6194 125.523C79.4833 125.523 78.5623 126.446 78.5623 127.583C78.5623 128.721 79.4833 129.644 80.6194 129.644Z" fill="#A837CE"/>
<path d="M73.9092 150.245C75.0453 150.245 75.9663 149.323 75.9663 148.185C75.9663 147.047 75.0453 146.125 73.9092 146.125C72.7731 146.125 71.8521 147.047 71.8521 148.185C71.8521 149.323 72.7731 150.245 73.9092 150.245Z" fill="#A837CE"/>
<path d="M80.6194 150.245C81.7556 150.245 82.6766 149.323 82.6766 148.185C82.6766 147.047 81.7556 146.125 80.6194 146.125C79.4833 146.125 78.5623 147.047 78.5623 148.185C78.5623 149.323 79.4833 150.245 80.6194 150.245Z" fill="#A837CE"/>
<path d="M221.171 223H7.17698C6.71888 223 6.34781 222.837 6.34781 222.636C6.34781 222.436 6.71888 222.273 7.17698 222.273H221.171C221.629 222.273 222 222.436 222 222.636C222 222.837 221.629 223 221.171 223Z" fill="#3F3D56"/>
<path d="M168.3 146.103C168.447 146.17 168.587 146.248 168.721 146.338L182.089 140.623L182.566 137.097L187.908 137.064L187.592 145.153L169.948 149.826C169.911 149.949 169.866 150.069 169.814 150.187C169.559 150.732 169.149 151.189 168.635 151.502C168.121 151.814 167.527 151.967 166.926 151.942C166.325 151.918 165.745 151.715 165.259 151.362C164.773 151.008 164.402 150.518 164.193 149.953C163.983 149.389 163.945 148.775 164.083 148.189C164.221 147.603 164.529 147.071 164.968 146.66C165.407 146.248 165.957 145.976 166.55 145.877C167.143 145.778 167.752 145.856 168.3 146.103V146.103Z" fill="#FFB8B8"/>
<path d="M189.85 219.401H186.196L184.458 205.286L189.851 205.286L189.85 219.401Z" fill="#FFB8B8"/>
<path d="M183.586 218.356H190.633V222.799H179.149C179.149 221.621 179.617 220.49 180.449 219.657C181.281 218.824 182.409 218.356 183.586 218.356Z" fill="#2F2E41"/>
<path d="M204.061 218.367L200.425 218.726L197.313 204.85L202.68 204.32L204.061 218.367Z" fill="#FFB8B8"/>
<path d="M197.725 217.942L204.738 217.25L205.173 221.672L193.744 222.8C193.687 222.219 193.745 221.633 193.914 221.074C194.083 220.516 194.36 219.996 194.73 219.545C195.1 219.094 195.554 218.72 196.068 218.445C196.582 218.17 197.145 217.999 197.725 217.942Z" fill="#2F2E41"/>
<path d="M190.867 122.125C194.91 122.125 198.188 118.843 198.188 114.794C198.188 110.745 194.91 107.463 190.867 107.463C186.824 107.463 183.547 110.745 183.547 114.794C183.547 118.843 186.824 122.125 190.867 122.125Z" fill="#FFB8B8"/>
<path d="M185.38 216.547C185.066 216.548 184.761 216.437 184.521 216.235C184.28 216.033 184.118 215.753 184.064 215.443C182.172 204.928 175.99 170.548 175.842 169.595C175.839 169.573 175.838 169.551 175.838 169.529V166.966C175.838 166.872 175.867 166.781 175.921 166.705L176.738 165.56C176.777 165.505 176.827 165.459 176.887 165.427C176.946 165.395 177.011 165.376 177.079 165.373C181.735 165.155 196.983 164.514 197.72 165.436C198.46 166.362 198.199 169.169 198.139 169.722L198.142 169.78L204.992 213.657C205.046 214.007 204.96 214.364 204.753 214.651C204.545 214.938 204.234 215.132 203.885 215.19L199.606 215.896C199.287 215.947 198.961 215.882 198.686 215.713C198.411 215.544 198.206 215.281 198.108 214.973C196.785 210.738 192.347 196.491 190.809 190.978C190.8 190.943 190.778 190.913 190.748 190.893C190.717 190.873 190.681 190.865 190.645 190.87C190.609 190.875 190.577 190.893 190.553 190.92C190.529 190.948 190.517 190.983 190.517 191.019C190.594 196.274 190.78 209.682 190.844 214.313L190.851 214.812C190.854 215.149 190.73 215.476 190.504 215.727C190.278 215.977 189.967 216.134 189.631 216.166L185.505 216.541C185.463 216.545 185.421 216.547 185.38 216.547Z" fill="#2F2E41"/>
<path d="M186.221 125.008C184.944 125.769 184.179 127.166 183.741 128.589C182.929 131.222 182.44 133.944 182.285 136.696L181.821 144.934L176.083 166.775C181.057 170.99 183.926 170.032 190.621 166.584C197.317 163.137 198.082 167.734 198.082 167.734L199.421 149.15L201.334 128.843C200.905 128.325 200.419 127.857 199.885 127.447C198.117 126.07 196.06 125.113 193.869 124.648C191.677 124.183 189.409 124.222 187.235 124.762L186.221 125.008Z" fill="#A837CE"/>
<path d="M184.357 150.514C184.512 150.572 184.661 150.642 184.805 150.724L198.023 144.098L198.242 140.508L203.694 140.132L203.987 148.314L186.323 154.165C186.178 154.784 185.849 155.345 185.379 155.773C184.909 156.201 184.319 156.475 183.69 156.559C183.06 156.643 182.42 156.533 181.854 156.244C181.288 155.955 180.824 155.5 180.522 154.94C180.221 154.38 180.097 153.741 180.167 153.109C180.237 152.477 180.497 151.881 180.913 151.4C181.33 150.92 181.882 150.577 182.497 150.419C183.113 150.261 183.761 150.294 184.357 150.514Z" fill="#FFB8B8"/>
<path d="M201.238 128.936C204.491 130.085 205.063 142.539 205.063 142.539C201.238 140.432 196.646 143.88 196.646 143.88C196.646 143.88 195.69 140.623 194.542 136.408C194.195 135.223 194.154 133.969 194.421 132.763C194.689 131.557 195.257 130.438 196.072 129.511C196.072 129.511 197.986 127.785 201.238 128.936Z" fill="#A837CE"/>
<path d="M197.431 116.733C196.519 116.002 195.275 117.33 195.275 117.33L194.545 110.753C194.545 110.753 189.985 111.301 187.066 110.571C184.147 109.841 183.691 113.22 183.691 113.22C183.541 111.855 183.51 110.48 183.6 109.109C183.782 107.465 186.154 105.821 190.349 104.725C194.545 103.628 196.734 108.379 196.734 108.379C199.653 109.84 198.343 117.464 197.431 116.733Z" fill="#2F2E41"/>
</g>
<defs>
<clipPath id="clip0_39_37">
<rect width="222" height="223" fill="white"/>
</clipPath>
</defs>
</svg>
